<svg x="0" y="0" width="48" height="48" version="1.1" xmlns="http://www.w3.org/2000/svg" xmlns:xlink="http://www.w3.org/1999/xlink"><defs><linearGradient x1="11.1035" y1="12.18708" x2="50.33153" y2="49.24795" gradientUnits="userSpaceOnUse" id="color-1"><stop offset="0" stop-color="#000000" stop-opacity="0.19"></stop><stop offset="1" stop-color="#000000" stop-opacity="0"></stop></linearGradient><filter id="dropshadow"><feColorMatrix type="matrix" values="0 0 0 0 .05  0 0 0 0 .15  0 0 0 0 .1  0 0 0 .8 0"></feColorMatrix> <feOffset dx="0" dy="1"></feOffset> <feGaussianBlur stdDeviation="1"></feGaussianBlur> <feComposite in="SourceGraphic"></feComposite></filter></defs><g fill="none" stroke="none" stroke-width="none" stroke-linecap="butt" stroke-linejoin="miter" stroke-miterlimit="none" stroke-dasharray="" stroke-dashoffset="0" font-family="none" font-weight="normal" font-size="none" text-anchor="start" mix-blend-mode="normal"><g fill="#000000" stroke="none" stroke-width="1" stroke-miterlimit="4" font-family="'Open Sans', sans-serif" font-size="14"></g><g id="Capa_1" fill="#000000" stroke="none" stroke-width="1" stroke-miterlimit="4" font-family="'Open Sans', sans-serif" font-size="14"><g></g><g></g><g></g><g></g><g></g><g></g><g></g><g></g><g></g><g></g><g></g><g></g><g></g><g></g><g></g></g><path d="M3,24c0,-11.59798 9.40202,-21 21,-21c11.59798,0 21,9.40202 21,21c0,11.59798 -9.40202,21 -21,21c-11.59798,0 -21,-9.40202 -21,-21z" fill="#607d8b" stroke-width="1" stroke-miterlimit="10" font-family="sans-serif" font-size="12" filter="url(#dropshadow)"></path><path d="M24.58461,44.99202l-10.4363,-10.4363c-0.77638,-0.77638 -1.25723,-1.84828 -1.25723,-3.03037c0,-2.3642 1.92337,-4.28763 4.28751,-4.28763c0.08435,0 0.16814,0.00245 0.2513,0.00728l-3.98781,-3.98781c-0.0739,-0.0739 -0.1452,-0.15052 -0.21372,-0.22973c0,0 0.44368,0.44368 0.44368,0.44368c0.00002,0.00002 0.00005,0.00004 0.00007,0.00006l-0.44382,-0.44382c0.00002,0.00002 0.00004,0.00005 0.00006,0.00007l-1.65322,-1.65322c0.00113,0.00113 0.00226,0.00226 0.00339,0.00338l-0.00338,-0.00338c-0.29125,-0.29125 -0.47165,-0.69336 -0.47165,-1.13684l4.08693,4.08693c0,0 0.00001,0 0.00001,0l-4.08694,-4.08694c0,-0.81388 0.60758,-1.48848 1.39289,-1.59423c0.64795,-1.60368 2.23132,-2.69345 3.97831,-2.69345c0,0 0.00001,0 0.00001,0l10.18867,0c0.25956,-2.11754 2.06901,-3.76263 4.25555,-3.76263c1.18207,0 2.25397,0.48086 3.03034,1.25723c0,0 11.04514,11.04514 11.04514,11.04514c-0.25564,11.17746 -9.24464,20.19739 -20.4098,20.50257z" fill="url(#color-1)" stroke-width="1" stroke-miterlimit="10" font-family="sans-serif" font-size="12"></path><path d="M36.8965,27.76266c0,0.81383 -0.60759,1.48843 -1.39295,1.59418c-0.64789,1.60368 -2.23122,2.69345 -3.97826,2.69345l-10.09104,0c-0.25955,2.11754 -2.06907,3.76263 -4.25566,3.76263c-2.36414,0 -4.28751,-1.92343 -4.28751,-4.28757c0,-2.3642 1.92337,-4.28763 4.28751,-4.28763c2.18654,0 3.99605,1.64509 4.25566,3.76269l10.09104,0c1.25542,0 2.39914,-0.74594 2.92856,-1.86271c-0.46404,-0.28253 -0.77452,-0.79324 -0.77452,-1.37504c0,-0.58181 0.31047,-1.09245 0.77452,-1.37498c-0.52943,-1.11683 -1.67309,-1.86271 -2.92856,-1.86271l-6.00469,0c-0.21808,0.62998 -0.81739,1.08359 -1.52057,1.08359c-0.70318,0 -1.30249,-0.4536 -1.52057,-1.08359l-6.00475,0c-1.74705,0 -3.33043,-1.08977 -3.97832,-2.69345c-0.78531,-0.10569 -1.39289,-0.78023 -1.39289,-1.59412c0,-0.81389 0.60759,-1.48849 1.39289,-1.59423c0.64795,-1.60368 2.23133,-2.69345 3.97832,-2.69345l10.18868,0c0.25955,-2.11754 2.06901,-3.76263 4.25555,-3.76263c2.36414,0 4.28757,1.92343 4.28757,4.28757c0,2.3642 -1.92337,4.28763 -4.28757,4.28763c-2.18648,0 -3.99599,-1.64509 -4.25555,-3.76269l-10.18868,0c-1.25542,0 -2.39914,0.74594 -2.92862,1.86271c0.46404,0.28253 0.77452,0.79324 0.77452,1.37504c0,0.58181 -0.31047,1.09245 -0.77452,1.37498c0.52949,1.11683 1.67315,1.86271 2.92862,1.86271l6.00475,0c0.21808,-0.62998 0.81739,-1.08359 1.52057,-1.08359c0.70318,0 1.30249,0.4536 1.52057,1.08359l6.00469,0c1.74705,0 3.33037,1.08977 3.97826,2.69345c0.78536,0.10575 1.39295,0.78035 1.39295,1.59418z M20.41634,31.52529c0,-1.78531 -1.45244,-3.23775 -3.23775,-3.23775c-1.78525,0 -3.23764,1.45244 -3.23764,3.23775c0,1.78531 1.45238,3.23769 3.23764,3.23769c1.78531,0 3.23775,-1.45238 3.23775,-3.23769z M27.6813,16.47471c0,1.78531 1.45238,3.23775 3.23764,3.23775c1.78525,0 3.23769,-1.45244 3.23769,-3.23775c0,-1.78531 -1.45244,-3.23769 -3.23769,-3.23769c-1.78525,0 -3.23764,1.45238 -3.23764,3.23769z M28.51274,16.47471c0,-1.32681 1.07939,-2.40625 2.40619,-2.40625c1.32681,0 2.40625,1.07945 2.40625,2.40625c0,1.32681 -1.07939,2.40625 -2.40625,2.40625c-1.32675,0 -2.40619,-1.07945 -2.40619,-2.40625z M19.58484,31.52529c0,1.32681 -1.07939,2.40625 -2.40625,2.40625c-1.32675,0 -2.40619,-1.07945 -2.40619,-2.40625c0,-1.32681 1.07939,-2.40625 2.40619,-2.40625c1.32681,0 2.40625,1.07945 2.40625,2.40625z M18.53497,31.52529c0,-0.74792 -0.60846,-1.35638 -1.35638,-1.35638c-0.74786,0 -1.35632,0.60846 -1.35632,1.35638c0,0.74792 0.60846,1.35638 1.35632,1.35638c0.74792,0 1.35638,-0.60846 1.35638,-1.35638z M29.56261,16.47471c0,0.74792 0.60846,1.35638 1.35632,1.35638c0.74792,0 1.35638,-0.60846 1.35638,-1.35638c0,-0.74792 -0.60846,-1.35638 -1.35638,-1.35638c-0.74786,0 -1.35632,0.60846 -1.35632,1.35638z M35.84669,27.7626c0,-0.30802 -0.25069,-0.55865 -0.55877,-0.55865c-0.02537,0 -0.05039,0.00169 -0.07489,0.00502c-0.00437,0.00064 -0.00869,0.00128 -0.01307,0.00187c-0.26643,0.04234 -0.47069,0.27361 -0.47069,0.55177c0,0.27804 0.20414,0.50931 0.4704,0.55177c0.00455,0.00058 0.0091,0.00122 0.01365,0.00198c0.02438,0.00327 0.04929,0.00496 0.07454,0.00496c0.30808,0 0.55877,-0.25063 0.55882,-0.55871z M13.27061,20.2374c0,-0.2781 -0.2042,-0.50936 -0.47052,-0.55177c-0.00449,-0.00064 -0.00892,-0.00122 -0.01342,-0.00198c-0.02444,-0.00327 -0.04934,-0.00496 -0.07466,-0.00496c-0.30808,0 -0.55871,0.25063 -0.55871,0.55871c0,0.30802 0.25063,0.55865 0.55871,0.55865c0.02543,0 0.05045,-0.00169 0.07495,-0.00502c0.00437,-0.00064 0.00863,-0.00128 0.01295,-0.00187c0.26643,-0.04229 0.47075,-0.27367 0.47069,-0.55177z M24.55868,24.00003c0,-0.30802 -0.25057,-0.55865 -0.55865,-0.55865c-0.30808,0 -0.55865,0.25063 -0.55865,0.55865c0,0.30802 0.25063,0.55865 0.55865,0.55865c0.30802,0 0.55865,-0.25063 0.55865,-0.55865z" fill="#ffffff" stroke="none" stroke-width="0" stroke-miterlimit="4" font-family="'Open Sans', sans-serif" font-size="14"></path></g></svg>